<?xml version="1.0" encoding="UTF-8" standalone="no"?>
<svg
   version="1.1"
   id="Layer_1"
   x="0px"
   y="0px"
   viewBox="0 0 110.47014 163.99388"
   xml:space="preserve"
   sodipodi:docname="icon.svg"
   inkscape:version="1.2.1 (9c6d41e410, 2022-07-14)"
   width="110.47014"
   height="163.99388"
   xmlns:inkscape="http://www.inkscape.org/namespaces/inkscape"
   xmlns:sodipodi="http://sodipodi.sourceforge.net/DTD/sodipodi-0.dtd"
   xmlns="http://www.w3.org/2000/svg"
   xmlns:svg="http://www.w3.org/2000/svg"><defs
   id="defs17">
	
	

		
		
	</defs><sodipodi:namedview
   id="namedview15"
   pagecolor="#ffffff"
   bordercolor="#666666"
   borderopacity="1.0"
   inkscape:showpageshadow="2"
   inkscape:pageopacity="0.0"
   inkscape:pagecheckerboard="0"
   inkscape:deskcolor="#d1d1d1"
   showgrid="false"
   inkscape:zoom="2.603683"
   inkscape:cx="75.470016"
   inkscape:cy="42.631918"
   inkscape:window-width="1920"
   inkscape:window-height="1011"
   inkscape:window-x="0"
   inkscape:window-y="0"
   inkscape:window-maximized="1"
   inkscape:current-layer="Layer_1" />
<style
   type="text/css"
   id="style2">
	.st0{fill:#FFFFFF;}
</style>

<g
   id="g5445"
   transform="translate(-549.70035,-769.50292)"><path
     id="path2262"
     style="fill:#ffffff;fill-opacity:1;stroke:none;stroke-width:1"
     d="m 603.45424,769.50912 c -0.56979,0.0247 -1.13923,0.0579 -1.70947,0.0706 -1.2354,0.042 -2.46793,0.12451 -3.70064,0.2469 -1.63585,0.16263 -3.28225,0.40052 -4.89673,0.7102 -1.91956,0.36923 -3.82574,0.84197 -5.68984,1.41738 -1.51116,0.46584 -3.01263,1.00578 -4.46738,1.60391 -1.13907,0.46875 -2.27035,0.9814 -3.37079,1.52907 -1.6315,0.8108 -3.22682,1.71217 -4.76105,2.68519 -1.09307,0.69388 -2.16003,1.42865 -3.19941,2.20058 -0.83111,0.61926 -1.6621,1.27543 -2.45587,1.94337 -0.77593,0.65111 -1.53251,1.32797 -2.26659,2.01913 -0.90661,0.85523 -1.79576,1.755 -2.64548,2.67616 -1.26712,1.37538 -2.47187,2.82635 -3.59461,4.32957 -0.73547,0.98499 -1.44382,2.00339 -2.11121,3.03453 -0.48797,0.75518 -0.96002,1.52528 -1.40837,2.29892 -0.3995,0.68908 -0.78822,1.39565 -1.15498,2.09578 -0.44182,0.8458 -0.8612,1.70319 -1.26035,2.56993 -0.51956,1.13425 -1.00932,2.30134 -1.45438,3.47403 -0.3668,0.96799 -0.71356,1.96236 -1.02765,2.95584 -0.0785,0.24772 -0.15828,0.5076 -0.23332,0.75564 -0.77844,2.58944 -1.37053,5.2352 -1.76317,7.91058 -0.11954,0.81398 -0.2218,1.63459 -0.30403,2.45569 -0.12612,1.24451 -0.20854,2.49951 -0.25008,3.75357 -0.0398,1.2292 -0.038,2.48337 0.006,3.71318 0.0575,1.63567 0.18957,3.27679 0.39341,4.89618 0.25408,2.01324 0.61252,4.0198 1.08533,5.99293 0.62447,2.60918 1.45572,5.19335 2.4922,7.67941 1.35252,3.24615 3.06293,6.35376 5.06141,9.25227 2.12795,3.09504 4.5821,5.95293 7.16424,8.67476 1.86982,1.98477 3.77714,3.93774 5.52911,6.02947 1.55803,1.84757 3.02793,3.77667 4.2919,5.83896 0.9357,1.53088 1.73856,3.14311 2.39008,4.81501 0.75924,1.90277 1.40609,3.85621 2.34064,5.68421 0.14996,0.29629 0.30819,0.58829 0.47002,0.87823 -0.62439,1.10998 -1.05261,2.33036 -1.24771,3.58927 -0.0268,0.17158 -0.0478,0.32905 -0.0671,0.50439 -0.009,0.0735 -0.0152,0.14951 -0.0232,0.23115 -0.009,0.11221 -0.0194,0.24895 -0.0253,0.3711 -0.0209,0.3882 -0.0194,0.80074 0.005,1.19828 0.0753,1.23895 0.37321,2.4669 0.89994,3.59214 0.0365,0.0781 0.0867,0.18172 0.1305,0.26852 0.0668,0.13261 0.13851,0.26269 0.20895,0.3934 -0.50533,1.14691 -0.81882,2.37904 -0.90835,3.62965 -0.009,0.10478 -0.0134,0.23296 -0.0194,0.32347 -0.0118,0.30475 -0.0117,0.6099 2.1e-4,0.91465 0.003,0.0477 0.007,0.13032 0.0104,0.19181 0.0134,0.20847 0.0322,0.42466 0.0572,0.62214 0.0401,0.33397 0.0973,0.66582 0.16981,0.99425 0.0194,0.0818 0.044,0.19243 0.0681,0.28465 0.2,0.80008 0.50887,1.57225 0.91395,2.29055 0.0384,0.0661 0.0911,0.15889 0.13481,0.23541 7e-4,0.0512 -0.0434,0.10475 -0.0594,0.1568 -0.90474,2.01363 -1.18755,4.30763 -0.75981,6.47609 0.11253,0.57372 0.27917,1.13758 0.49962,1.68541 0.0628,0.15403 0.12884,0.30622 0.2026,0.46217 0.16815,0.35756 0.36995,0.7178 0.58119,1.0392 0.0763,0.11595 0.15087,0.22394 0.23592,0.34026 0.13507,0.18557 0.28029,0.36339 0.42677,0.54001 -0.008,0.39197 0.004,0.78435 0.04,1.1748 0.007,0.066 0.0158,0.16337 0.0259,0.24181 0.0394,0.34442 0.098,0.68647 0.17063,1.02538 0.0169,0.0716 0.0386,0.17355 0.0598,0.25643 0.0588,0.24369 0.12913,0.4937 0.20227,0.72333 0.49178,1.55113 1.31268,3.00147 2.41832,4.19781 1.02269,1.11477 2.28284,2.01346 3.67971,2.59714 0.12316,0.0524 0.26917,0.11038 0.38035,0.1542 0.92541,0.35387 1.91446,0.58782 2.90549,0.705 0.0509,0.0179 0.13835,-0.007 0.1651,0.0391 0.17176,0.65489 0.39111,1.29951 0.6965,1.90494 0.43827,0.88382 1.04141,1.68751 1.78371,2.33882 0.65836,0.58575 1.40895,1.06708 2.21248,1.42818 0.0706,0.0303 0.16855,0.0722 0.251,0.10426 0.6079,0.24255 1.25203,0.3863 1.90193,0.4559 0.0495,0.005 0.11681,0.0127 0.16563,0.0165 1.20942,0.11317 2.42516,0.0626 3.63776,0.0668 2.00484,-0.0153 4.00988,-0.006 6.01442,0.0312 0.16866,10e-4 0.35479,-0.004 0.51227,-0.01 1.62327,-0.0613 3.23594,-0.56819 4.57294,-1.49703 1.17584,-0.8125 2.11017,-1.96073 2.69019,-3.26522 0.2338,-0.51471 0.39504,-1.05732 0.5437,-1.59849 0.72795,-0.0903 1.45161,-0.2253 2.15414,-0.43871 1.53034,-0.4573 2.96981,-1.23344 4.16433,-2.29703 0.39442,-0.34797 0.76296,-0.72498 1.10419,-1.1252 0.0333,-0.0407 0.0897,-0.10759 0.13178,-0.15834 1.41202,-1.72438 2.31402,-3.87885 2.47037,-6.10768 0.0228,-0.32303 0.0265,-0.647 0.0209,-0.9707 0.74875,-0.86765 1.30992,-1.89133 1.66445,-2.97988 0.0217,-0.0673 0.0525,-0.16498 0.0757,-0.24444 0.11089,-0.37309 0.19996,-0.76798 0.26139,-1.14287 0.0182,-0.10947 0.0309,-0.20627 0.0468,-0.3211 0.1496,-1.1415 0.11349,-2.30661 -0.10498,-3.43691 -0.0358,-0.18305 -0.0791,-0.38561 -0.12633,-0.57438 -0.16828,-0.68251 -0.40979,-1.34523 -0.69867,-1.98558 0.3921,-0.6583 0.70821,-1.3619 0.93262,-2.09472 0.0173,-0.0586 0.0451,-0.14829 0.0645,-0.21967 0.0805,-0.2839 0.14781,-0.57932 0.20032,-0.85846 0.0653,-0.3479 0.11128,-0.69743 0.14023,-1.04492 0.0597,-0.72708 0.0398,-1.4599 -0.0488,-2.18379 -0.0173,-0.13756 -0.0395,-0.29808 -0.0641,-0.44385 -0.0304,-0.18402 -0.0636,-0.35515 -0.10334,-0.54072 -0.0363,-0.1695 -0.0763,-0.33446 -0.1225,-0.50716 -0.14724,-0.549 -0.34091,-1.08468 -0.56615,-1.60632 0.28046,-0.50188 0.51973,-1.02695 0.70801,-1.57031 0.0421,-0.12019 0.0886,-0.26438 0.12784,-0.39542 0.69405,-2.31856 0.51959,-4.87154 -0.42394,-7.09507 -0.0395,-0.0921 -0.082,-0.18987 -0.1193,-0.2699 -0.12654,-0.2795 -0.26942,-0.55114 -0.41722,-0.81988 0.48889,-0.89568 0.9158,-1.82555 1.31328,-2.76914 0.79027,-1.87804 1.47078,-3.81916 2.33343,-5.67326 0.65257,-1.41675 1.39989,-2.79094 2.25748,-4.09441 2.09218,-3.21086 4.7075,-6.03229 7.33147,-8.80931 2.43559,-2.57998 4.90743,-5.12745 7.0888,-7.93314 1.24225,-1.59422 2.37923,-3.26943 3.42379,-4.99927 1.80697,-2.99657 3.32191,-6.19051 4.49658,-9.49473 0.27582,-0.77275 0.53443,-1.56167 0.77178,-2.34081 0.1761,-0.5843 0.34358,-1.1698 0.49822,-1.75596 0.41915,-1.58129 0.76274,-3.17944 1.03322,-4.79521 0.10082,-0.60569 0.19476,-1.23147 0.27475,-1.84053 0.21587,-1.64395 0.35421,-3.28688 0.41772,-4.94596 0.0455,-1.17484 0.0516,-2.36277 0.02,-3.54308 -0.0165,-0.64468 -0.0476,-1.30285 -0.0876,-1.94739 -0.13463,-2.15373 -0.39898,-4.29905 -0.78406,-6.42226 -0.22345,-1.22055 -0.48749,-2.44926 -0.79253,-3.65812 -0.24808,-0.98531 -0.52647,-1.97546 -0.82716,-2.94399 -0.71,-2.28711 -1.56646,-4.52867 -2.56077,-6.70727 -0.94361,-2.06339 -2.01882,-4.08582 -3.2115,-6.02397 -1.18752,-1.93315 -2.49093,-3.79178 -3.9088,-5.56577 -1.0233,-1.28283 -2.12243,-2.53666 -3.26277,-3.72343 -1.34713,-1.40147 -2.77004,-2.73025 -4.26304,-3.97526 -2.38838,-1.99157 -4.95998,-3.77914 -7.66731,-5.31725 -2.15907,-1.22634 -4.42148,-2.30228 -6.74111,-3.20692 -3.05092,-1.19079 -6.23121,-2.09676 -9.45658,-2.70205 -1.00814,-0.18907 -2.03835,-0.35265 -3.05646,-0.48456 -0.91401,-0.11901 -1.8338,-0.21346 -2.74808,-0.28703 -1.19999,-0.0973 -2.40306,-0.14969 -3.6062,-0.18783 -0.4961,-0.0284 -0.98087,-0.0492 -1.47764,-0.0396 -0.38057,0.0129 -0.7836,0.0164 -1.1738,0.008 -0.35701,-0.003 -0.71436,-0.0186 -1.07126,-0.005 z" /><path
     d="m 626.53187,885.55559 c 1.8569,-2.9111 2.7339,-6.2953 4.2134,-9.3907 4.0361,-8.9323 11.8845,-14.4285 17.5146,-21.992 24.0719,-32.6123 1.9831,-82.1172 -41.1772,-82.8207 -0.7193,-0.0778 -1.4386,-0.0539 -2.1585,-0.0225 -0.7199,-0.0314 -1.4392,-0.0553 -2.1585,0.0225 -33.1359,0.5401 -54.8526,30.3484 -50.5202,60.0403 2.3893,16.7215 11.5647,25.7266 17.146,31.6006 12.0016,12.6058 9.8977,16.249 13.9248,22.5625 z"
     id="path402"
     style="stroke-width:1" /><path
     id="path6-5"
     style="fill:#ffffff;stroke-width:10"
     class="st0 UnoptimicedTransforms"
     d="m 475.77148,119.60547 c -14.47949,0.19211 -28.68488,4.57861 -41.38275,11.39351 -16.94532,9.15775 -31.4493,22.25601 -44.01529,36.7372 -4.7848,5.51163 -9.3158,11.27202 -13.61758,17.14859 -14.23856,-3.52803 -29.68866,-2.46041 -43.09718,3.6072 -16.55542,7.33313 -29.91158,21.46463 -36.44629,38.33596 -5.04893,12.38129 -6.78091,26.16821 -4.53466,39.37519 -2.02188,-0.90954 -4.29961,-1.03137 -6.46434,-0.6741 -11.52262,1.07197 -23.01044,4.00799 -33.13311,9.73252 -10.29259,5.77785 -18.9939,14.39172 -24.72849,24.72097 -7.17987,12.71909 -10.01485,27.57132 -9.43802,42.08025 0.58186,15.14689 4.73873,30.10356 11.74834,43.52513 -19.19662,5.02567 -36.58327,16.31434 -49.39837,31.41623 -13.8893,16.27829 -22.70795,37.09772 -23.56886,58.56524 -0.67943,16.9553 3.7984,34.13069 12.96482,48.43807 2.80943,4.44589 5.91902,8.73542 9.55905,12.53945 1.60124,1.33717 3.57444,2.1992 5.62695,2.54492 -14.61562,11.73988 -25.51682,27.72935 -32.23472,45.15585 -6.47034,16.77258 -9.47675,34.77413 -9.66717,52.7175 -0.21563,21.51027 2.54243,43.19054 9.5735,63.57888 5.54314,16.22659 13.94825,31.52528 25.08927,44.58821 8.07205,9.54167 17.64644,17.77592 28.16597,24.51094 7.06642,4.53393 14.55612,8.40388 22.32315,11.58924 -3.79036,18.71456 -3.69613,38.46163 2.0188,56.78273 4.82963,15.41894 13.83618,29.69217 26.44698,39.90619 12.57376,10.25573 28.37219,16.32359 44.50749,17.65994 7.22999,0.65624 14.52699,0.47411 21.72986,-0.40745 -0.13475,15.18668 2.29346,30.57723 8.53088,44.5014 5.72227,12.70045 14.95793,23.98571 26.91521,31.26726 11.87143,7.31236 25.93427,10.65631 39.81366,10.49185 12.41175,-0.0555 24.70049,-2.6395 36.43361,-6.57496 12.74956,11.62102 27.7506,21.09069 44.37823,25.99612 16.64787,4.9107 34.91651,4.7956 51.25797,-1.2534 16.99145,-6.16025 31.63912,-18.18462 41.56817,-33.2273 11.08531,-16.60608 16.69237,-36.62649 16.66909,-56.53957 0.033,-20.2467 -5.5036,-40.31405 -14.96704,-58.14929 -4.70061,-8.93141 -10.33131,-17.36025 -16.64861,-25.22696 12.94846,-16.28146 22.43187,-35.53539 26.19505,-56.06501 4.23078,-22.7476 1.412,-46.93804 -8.88177,-67.73942 -6.63073,-13.44941 -16.43296,-25.48664 -28.89336,-33.92994 3.2215,-1.1343 5.93052,-3.58095 7.41738,-6.65175 11.48362,-18.3903 18.29277,-39.7002 19.38553,-61.36595 1.34958,-24.91717 -4.48784,-50.06595 -16.05831,-72.13014 -6.47343,-12.3877 -14.71753,-23.848 -24.40866,-33.92052 15.04747,-15.41361 27.00891,-34.06029 33.55052,-54.65252 7.24698,-22.71178 7.64246,-47.5844 0.92614,-70.47283 -5.02463,-17.43722 -13.80653,-33.70469 -25.13682,-47.84535 16.07882,-24.80179 25.31381,-54.09043 25.8112,-83.67843 0.44211,-23.68648 -4.61207,-47.63631 -15.7279,-68.63415 -8.0939,-15.19206 -19.6386,-28.80652 -34.31223,-37.98364 -12.45454,-7.78189 -27.12718,-12.10564 -41.84529,-11.78386 z"
     transform="matrix(0.1,0,0,0.1,544.44197,766.34999)" /><path
     class="st0"
     d="m 596.86197,798.61009 c 4.8714,5.2887 4.4272,12.4135 -1.219,17.2027 4.66,3.9059 6.2963,10.7336 2.943,16.0439 -2.1599,-0.8771 -4.7219,-0.9905 -6.841,0.062 -1.5397,-1.0737 -3.4816,-1.5521 -5.3314,-1.1269 -1.4058,-5.1802 -5.7926,-7.6267 -11.0562,-6.4442 0,-1.2952 -0.287,-2.5904 -0.9444,-3.7155 2.0766,-0.1914 4.1142,-1.0418 5.599,-2.5249 2.1952,2.653 5.8082,3.4106 8.9726,1.3891 0.8221,1.7169 2.2396,3.1539 4.0132,3.8803 0.2906,-0.7194 0.5723,-1.4405 0.8717,-2.1545 -3.6456,-1.5635 -4.7837,-7.2308 -0.8523,-9.9453 -0.443,-0.6414 -0.8806,-1.2863 -1.3236,-1.926 -2.493,1.6638 -3.8218,4.7839 -3.3984,7.7394 -2.4695,2.0091 -5.3098,1.3835 -6.8269,-0.9143 0.7335,-1.4263 0.9798,-3.1113 0.5262,-4.6617 3.3944,-2.088 3.7112,-6.2047 2.2485,-9.3251 4.7074,-0.122 7.8651,-3.0766 8.0175,-7.7022 2.2378,-0.7016 4.0061,-2.6241 4.5111,-4.9168 -0.7389,-0.1931 -1.4813,-0.3703 -2.2307,-0.5191 -0.9078,4.0401 -5.874,4.4695 -8.6395,1.3129 -0.5971,0.5014 -1.1747,1.0223 -1.7488,1.5468 1.4635,1.6726 3.5472,2.819 5.7903,2.9271 -1.2072,10.2836 -17.8404,2.9849 -14.4847,-5.2677 0.9459,-2.5101 3.8855,-4.4549 7.2096,-3.0794 11.0798,-16.3913 22.7426,0.6344 14.1942,12.1194 z m -23.7992,-4.2985 c 1.5991,4.1547 4.3497,6.1444 7.991,7.4452 3.2534,2.5859 1.8474,8.5043 -2.6028,8.3081 2.5214,2.8823 1.6994,5.4331 -0.9639,7.0395 -5.7774,3.3943 -7.3298,-1.8663 -14.1941,1.7311 -4.3266,-5.1995 0.2963,-12.95 6.6887,-12.8263 -3.3555,-3.5756 -3.4619,-11.0412 3.0811,-11.6976 z m -0.7513,33.5284 c 5.662,-2.4962 10.4915,-2.0123 11.9634,3.9707 -1.7346,1.2793 -2.679,3.4834 -2.3867,5.622 -6.2888,4.2087 -4.3474,13.2334 3.7988,14.0542 0.4057,2.9944 2.6453,5.498 5.4253,6.5629 0.3154,-0.7087 0.5599,-1.444 0.8434,-2.1634 -5.0724,-2.0729 -5.7526,-8.8132 0.2959,-10.4308 -0.1719,-0.753 -0.3366,-1.5078 -0.505,-2.2609 -2.982,0.6607 -5.2852,2.6297 -6.0313,5.948 -6.4036,-0.8064 -7.0705,-7.4236 -1.1535,-10.5141 -1.4002,-5.962 3.3091,-7.1614 7.0324,-3.6783 6.6736,-5.6035 14.6207,5.6851 6.7755,14.0435 9.2475,10.0044 -1.1622,22.2972 -10.0392,13.2267 -6.7741,2.7295 -10.8964,-1.1979 -9.9843,-8.0902 -7.081,2.0231 -11.4179,-3.5714 -9.3305,-10.5424 -6.6112,-2.0811 -9.0579,-7.9246 -8.7564,-14.3235 0.9068,-13.206 16.6627,-11.798 12.0522,-1.4244 z"
     id="path6"
     style="fill:#000000;fill-opacity:1;stroke-width:1" /><path
     class="st0"
     d="m 627.18057,786.49079 c 3.3147,-1.3716 6.2603,0.5603 7.2096,3.0794 3.3577,8.2577 -13.2791,15.5377 -14.4847,5.2677 2.2431,-0.1081 4.3268,-1.2545 5.7903,-2.9271 -0.5741,-0.5245 -1.1517,-1.0454 -1.7488,-1.5468 -2.7647,3.1557 -7.7315,2.728 -8.6395,-1.3129 -0.7495,0.1488 -1.4919,0.326 -2.2307,0.5191 0.505,2.2928 2.2733,4.2152 4.5111,4.9168 0.1524,4.6257 3.3105,7.5801 8.0175,7.7022 -1.4488,3.0908 -1.175,7.2193 2.2485,9.3251 -0.4536,1.5504 -0.2073,3.2354 0.5262,4.6617 -1.5126,2.291 -4.3508,2.9288 -6.8269,0.9143 0.4235,-2.9554 -0.9054,-6.0756 -3.3984,-7.7394 -0.443,0.6396 -0.8806,1.2846 -1.3236,1.926 3.9299,2.7134 2.7947,8.3812 -0.8523,9.9453 0.2994,0.7141 0.5812,1.4352 0.8717,2.1545 1.7736,-0.7265 3.1911,-2.1634 4.0132,-3.8803 3.1218,1.9942 6.7449,1.3031 8.9726,-1.3891 1.4848,1.483 3.5224,2.3335 5.599,2.5249 -0.6573,1.1251 -0.9444,2.4203 -0.9444,3.7155 -5.2583,-1.1813 -9.6491,1.2589 -11.0562,6.4442 -1.8498,-0.4252 -3.7917,0.0532 -5.3314,1.1269 -2.1191,-1.0525 -4.6812,-0.9391 -6.841,-0.062 -3.3571,-5.3164 -1.7113,-12.1428 2.943,-16.0439 -5.6477,-4.7905 -6.0891,-11.9154 -1.219,-17.2027 -7.5922,-10.2004 0.5287,-22.3719 8.402,-18.0337 2.4594,1.3624 4.2437,3.6233 5.7922,5.9143 z m 12.6864,19.5185 c 6.3903,-0.1237 11.0171,7.6246 6.6887,12.8263 -1.5694,-0.8225 -3.767,-2.0541 -7.8882,-0.8363 -4.6737,1.3978 -11.9009,-2.6402 -7.2698,-7.9343 -4.4501,0.1961 -5.8568,-5.7218 -2.6028,-8.3081 3.5043,-1.2519 6.3386,-3.1523 7.991,-7.4452 6.4775,0.6497 6.4734,8.0825 3.0811,11.6976 z m 0.9656,37.5788 c 2.0839,6.9591 -2.2337,12.57 -9.3305,10.5424 0.9123,6.8938 -3.2481,10.8044 -9.9843,8.0902 -8.9352,9.1299 -19.2353,-3.278 -10.0392,-13.2267 -7.8548,-8.3687 0.0915,-19.6557 6.7755,-14.0435 3.6775,-3.4403 8.4439,-2.3315 7.0324,3.6783 5.8943,3.0786 5.2747,9.7046 -1.1535,10.5141 -0.7412,-3.2964 -3.0243,-5.2818 -6.0313,-5.948 -0.1683,0.753 -0.3331,1.5078 -0.505,2.2609 6.0391,1.615 5.3744,8.3554 0.2959,10.4308 0.2835,0.7194 0.528,1.4547 0.8434,2.1634 2.78,-1.0649 5.0196,-3.5685 5.4253,-6.5629 8.1536,-0.8215 10.0853,-9.8471 3.7988,-14.0542 0.2924,-2.1386 -0.652,-4.3428 -2.3867,-5.622 1.4762,-6.0007 6.3078,-6.4641 11.9634,-3.9707 -3.7249,-8.381 5.1987,-9.8654 9.0062,-6.1323 4.8087,4.6071 4.8526,18.5552 -5.7104,21.8802 z"
     id="path8"
     style="stroke-width:1" /><path
     style="fill:#ffffff;fill-opacity:1;stroke:#000000;stroke-width:2;stroke-linecap:butt;stroke-linejoin:miter;stroke-dasharray:none;stroke-opacity:1"
     d="m 583.31627,885.55559 v 0 c -2.1847,2.8048 -2.4026,7.1245 -0.1648,9.9612 -1.7364,2.858 -1.7665,6.8765 0.4713,9.4775 -2.0476,3.1982 -1.8608,7.7175 0.8345,10.0906 -0.5833,3.7263 2.1687,10.0389 9.6352,9.9134 v 0 h 21.6632 c 6.9851,0.1174 10.281,-5.7885 9.6352,-9.9134 2.7183,-2.3933 2.8625,-6.9231 0.8345,-10.0906 2.2378,-2.601 2.2077,-6.6196 0.4713,-9.4775 2.2378,-2.8367 2.0199,-7.1564 -0.1648,-9.9612 z"
     id="path2933"
     sodipodi:nodetypes="ccccccccccccc" /><path
     style="fill:none;stroke:#000000;stroke-width:2;stroke-linecap:butt;stroke-linejoin:miter;stroke-dasharray:none;stroke-opacity:1"
     d="m 626.69667,895.51679 -43.0739,9.4775"
     id="path2473" /><path
     style="fill:none;stroke:#000000;stroke-width:2;stroke-linecap:butt;stroke-linejoin:miter;stroke-dasharray:none;stroke-opacity:1"
     d="m 626.22537,904.99429 -41.7681,10.0906"
     id="path2502" /><path
     style="fill:none;stroke:#000000;stroke-width:2;stroke-linecap:butt;stroke-linejoin:miter;stroke-dasharray:none;stroke-opacity:1"
     d="m 626.53187,885.55559 -43.3804,9.9612"
     id="path2504" /><path
     id="path2545"
     style="fill:none;stroke:#000000;stroke-width:2;stroke-linecap:butt;stroke-linejoin:miter;stroke-dasharray:none;stroke-opacity:1"
     d="m 625.39087,915.08489 -36.32823,8.7764" /><path
     id="path3301"
     style="fill:#000000;fill-opacity:1;stroke:#000000;stroke-width:2;stroke-linecap:butt;stroke-linejoin:miter;stroke-dasharray:none;stroke-opacity:1"
     d="m 615.75567,924.99829 c -0.1832,0.7046 -0.2638,3.559 -2.8544,5.2411 -1.1322,0.7601 -2.5178,1.0809 -3.8715,1.0596 -8.7609,-0.2109 -9.8038,0.4705 -12.0829,-1.0596 -2.5929,-1.6837 -2.6709,-4.5354 -2.8544,-5.2411 v 0 z"
     sodipodi:nodetypes="ccccccc" /></g></svg>
